<svg id="Layer_1" data-name="Layer 1" xmlns="http://www.w3.org/2000/svg" viewBox="0 0 1000 259"><defs><style>.cls-1{fill:#00ff8b;}</style></defs><title>LogoA 04</title><polygon class="cls-1" points="335.42 120.33 280.89 120.33 280.89 80.08 268.05 80.08 268.05 175.71 280.89 175.71 280.89 132.46 335.42 132.46 335.42 175.71 348.26 175.71 348.26 80.08 335.42 80.08 335.42 120.33"/><path class="cls-1" d="M411.56,80.08l-44.68,95.63H382.3l10.13-22.83h44.82l10,22.83h15.42L418,80.08Zm-13.85,60.66,17.27-39,17,39Z"/><path class="cls-1" d="M519.14,165.29A37.23,37.23,0,0,1,500,160.37,36,36,0,0,1,486.74,147a37.55,37.55,0,0,1-4.86-19.12,38,38,0,0,1,4.86-19.2A35.43,35.43,0,0,1,500,95.35a37.68,37.68,0,0,1,19.13-4.85,33.85,33.85,0,0,1,12.49,2.07,45.47,45.47,0,0,1,9.13,4.78q3.93,2.72,7.07,5V88.22a41.3,41.3,0,0,0-11.63-7.43q-6.65-2.85-17.06-2.85a50,50,0,0,0-36,14.7,48.82,48.82,0,0,0-10.63,15.92,51.24,51.24,0,0,0,0,38.68,48.88,48.88,0,0,0,10.63,15.91,50.6,50.6,0,0,0,16,10.78,53.78,53.78,0,0,0,38.46.71A44.12,44.12,0,0,0,550.68,167V154.16a68.37,68.37,0,0,1-12.77,7.49Q530.13,165.3,519.14,165.29Z"/><polygon class="cls-1" points="649.89 80.08 631.9 80.08 588.22 130.32 588.22 80.08 575.38 80.08 575.38 175.71 588.22 175.71 588.22 147.88 600.5 134.46 636.33 175.71 654.17 175.71 609.78 124.19 649.89 80.08"/><polygon class="cls-1" points="671.48 175.71 698.17 175.71 698.17 143.46 732.14 143.46 732.14 119.9 698.17 119.9 698.17 103.63 739.28 103.63 739.28 80.08 671.48 80.08 671.48 175.71"/><path class="cls-1" d="M811.17,136q0,7.42-4,12.06t-12.56,4.79q-8.57.13-12.56-4.64t-4-12.21V79.79H751.37v58.1q0,12.42,5.85,21.41a38.32,38.32,0,0,0,15.7,13.77,51.78,51.78,0,0,0,43.46,0A38.38,38.38,0,0,0,832,159.3q5.85-9,5.86-21.41V79.79h-26.7Z"/><polygon class="cls-1" points="915.81 80.08 915.81 127.9 864.57 78.65 855.14 78.65 855.14 175.71 881.84 175.71 881.84 128.75 933.08 177.14 942.5 177.14 942.5 80.08 915.81 80.08"/><path class="cls-1" d="M215.7,169.46a8,8,0,0,0-5.09-1L194,119.15a.05.05,0,0,0,0,0,8,8,0,1,0-10.57-11.39l-29-12.46a8,8,0,0,0-7.53-9.69L142.84,59.7a8,8,0,1,0-8.47-2L106.44,96.84a8,8,0,0,0-12,10.13,7.82,7.82,0,0,0,.43.68l-33.66,22a8,8,0,1,0,1,9.76l32.32,12.43a8,8,0,0,0,5.76,9.11l-2.81,37.46a8,8,0,1,0,8.78,6.57l39.42-14.82a8,8,0,0,0,14.78-3.94l43.68-7.12a8,8,0,1,0,11.51-9.65ZM153.24,98l29,12.47a7.93,7.93,0,0,0,.87,5.68,7.51,7.51,0,0,0,.71,1L163.6,141.06a8,8,0,0,0-3.91-1l-.38,0-9.39-39.21A7.91,7.91,0,0,0,153.24,98ZM136.81,59.45a8,8,0,0,0,3.06.72l4.07,25.88A8,8,0,0,0,147,101.53l9.38,39.2a8,8,0,0,0-2,1.3l-45.9-35.43a8,8,0,0,0-.08-7.35Zm-41.15,89.6L63.33,136.61a7.68,7.68,0,0,0-.46-4.44l34.26-22.4a8,8,0,0,0,8.21.16,8.53,8.53,0,0,0,1.32-1l45.89,35.43a7.68,7.68,0,0,0-.82,2.82l-41.64,3.82a8,8,0,0,0-14.43-2Zm52.9,30a8,8,0,0,0-3.89,8.28l-39.42,14.82a7.84,7.84,0,0,0-4.73-3.53l2.82-37.47a8,8,0,0,0,6-3.91,7.91,7.91,0,0,0,1-3.23L152,150.22a8,8,0,0,0,4.75,5.21L152.5,178A7.94,7.94,0,0,0,148.56,179.08Zm56.22-6.73a8,8,0,0,0-1.07,3.79L160,183.27a7.52,7.52,0,0,0-.56-1.23,7.93,7.93,0,0,0-4-3.46L159.7,156a8,8,0,0,0,6.19-13l20.24-23.85a8,8,0,0,0,5,1l16.62,49.31A7.9,7.9,0,0,0,204.78,172.35Z"/><path class="cls-1" d="M195.87,193a81.12,81.12,0,0,1-75.63,19.93,4.35,4.35,0,1,0-2.15,8.43A88.66,88.66,0,0,0,140,224.08a89.49,89.49,0,0,0,61.88-24.83,4.35,4.35,0,1,0-6-6.27Z"/><path class="cls-1" d="M62.55,156.66A4.35,4.35,0,1,0,54.18,159a89.45,89.45,0,0,0,21.59,37.72,4.35,4.35,0,1,0,6.27-6A80.8,80.8,0,0,1,62.55,156.66Z"/><path class="cls-1" d="M57.32,115.29a4.22,4.22,0,0,0,1.21.18,4.36,4.36,0,0,0,4.18-3.14,80.51,80.51,0,0,1,55.4-55,4.35,4.35,0,0,0-2.37-8.37,89.28,89.28,0,0,0-61.39,61A4.36,4.36,0,0,0,57.32,115.29Z"/><path class="cls-1" d="M185,57.62a89.14,89.14,0,0,0-20-8.55,4.35,4.35,0,0,0-2.43,8.35,80.6,80.6,0,0,1,55.69,97.06,4.35,4.35,0,0,0,8.43,2.13,89.93,89.93,0,0,0-4.09-55.93A88.47,88.47,0,0,0,185,57.62Z"/></svg>